<?xml version="1.0" encoding="utf-8"?>
<!-- Generator: Adobe Illustrator 27.2.0, SVG Export Plug-In . SVG Version: 6.00 Build 0)  -->
<svg version="1.1" id="Capa_1" xmlns="http://www.w3.org/2000/svg" xmlns:xlink="http://www.w3.org/1999/xlink" x="0px" y="0px"
	 viewBox="0 0 1000 1000" style="enable-background:new 0 0 1000 1000;" xml:space="preserve">
<path d="M431.5,367l-0.6,220l-26.5-0.1l0.1-22.3c-9.5,16.1-30.3,25.9-50.7,25.8c-39.1-0.1-71.3-30.4-71.2-75.2
	c0.1-45.2,32.2-74.7,71.3-74.6c21.4,0.1,41.5,9.3,50.9,26.1l0.3-99.8L431.5,367z M404.6,515.2c0.1-30.8-24.9-49.5-48.4-49.6
	c-25.9-0.1-46.7,20.6-46.8,49.3c-0.1,28.4,20.6,50.4,46.5,50.5C381.5,565.5,404.5,545.7,404.6,515.2z M588.4,470.2
	c9.1,12.2,14.6,27.8,14.5,45.8c-0.1,45.2-34.4,75-74.9,74.9c-16.5,0-31.7-5-44.2-13.8l-17.1,17.3l-13.7-13.8l16.8-17
	c-10-12.5-16.1-29-16-47.9c0.1-45.2,34.1-74.7,74.6-74.6c17.4,0,33.5,5.6,46.3,15.4l15.6-15.8l13.7,13.8L588.4,470.2z M488.4,544.4
	l67.9-69.4c-7.9-5.5-17.7-8.9-28-8.9c-25.9-0.1-47.7,20.3-47.7,49.6C480.5,526.7,483.5,536.5,488.4,544.4z M569.4,489.7l-67.3,68.5
	c7.6,4.9,16.5,7.7,25.9,7.7c26.2,0.1,48.3-20.3,48.3-49.9C576.4,505.9,573.9,497,569.4,489.7z M717.5,447.1l-4.3,25
	c-7.6-3.7-15.2-4.9-20.7-4.9c-28.4-0.1-39.7,30.7-39.8,68.2l-0.1,52.2l-26.9-0.1L626,445l26.9,0.1l-0.1,32.3
	c7.4-25,21.1-35.9,40.1-35.9C702.9,441.6,713.2,444.3,717.5,447.1z M500.3,302v-37.3h-383v433.2h383v37.3h382.4V302H500.3z
	 M839.9,697.5H500.3v-37.3H160.1V302.5h340.2v37.3h339.6V697.5z"/>
</svg>
